<svg width="100" height="100" viewBox="0 0 100 100" fill="none" xmlns="http://www.w3.org/2000/svg">
<path d="M0 47.9167C0 25.3285 0 14.0345 7.01723 7.01723C14.0345 0 25.3285 0 47.9167 0H52.0833C74.6715 0 85.9656 0 92.9827 7.01723C100 14.0345 100 25.3285 100 47.9167V52.0833C100 74.6715 100 85.9656 92.9827 92.9827C85.9656 100 74.6715 100 52.0833 100H47.9167C25.3285 100 14.0345 100 7.01723 92.9827C0 85.9656 0 74.6715 0 52.0833L0 47.9167Z" fill="#2787F5"/>
<path fill-rule="evenodd" clip-rule="evenodd" d="M27.0852 31.25H19.7919C17.7081 31.25 17.2913 32.2308 17.2913 33.3121C17.2913 35.2435 19.7639 44.8225 28.8042 57.4915C34.8311 66.1433 43.3223 70.8333 51.0492 70.8333C55.6852 70.8333 56.2588 69.7917 56.2588 67.9975V61.4583C56.2588 59.375 56.6979 58.9592 58.1658 58.9592C59.2477 58.9592 61.1021 59.5 65.4292 63.6715C70.3744 68.6154 71.1896 70.8333 73.9711 70.8333H81.2644C83.3484 70.8333 84.3902 69.7917 83.7892 67.736C83.1315 65.6873 80.7704 62.7146 77.6375 59.191C75.9375 57.1825 73.3877 55.0196 72.615 53.9379C71.5333 52.5475 71.8423 51.9294 72.615 50.6935C72.615 50.6935 81.5008 38.179 82.4281 33.9304C82.8917 32.3852 82.4281 31.25 80.2225 31.25H72.9292C71.0748 31.25 70.2198 32.2308 69.7561 33.3121C69.7561 33.3121 66.0473 42.3504 60.7931 48.2215C59.0931 49.9208 58.3204 50.4617 57.3931 50.4617C56.9296 50.4617 56.2586 49.9208 56.2586 48.376V33.9304C56.2586 32.0763 55.7204 31.25 54.1748 31.25H42.7138C41.555 31.25 40.8579 32.1104 40.8579 32.926C40.8579 34.6835 43.485 35.089 43.7558 40.0329V50.7708C43.7558 53.125 43.3304 53.5519 42.4033 53.5519C39.9308 53.5519 33.9165 44.4731 30.3494 34.0848C29.6504 32.0656 28.9492 31.25 27.0852 31.25Z" fill="white"/>
</svg>
